<?xml version="1.0"?>
<svg xmlns="http://www.w3.org/2000/svg" xmlns:xlink="http://www.w3.org/1999/xlink" xmlns:svgjs="http://svgjs.com/svgjs" version="1.1" width="512" height="512" x="0" y="0" viewBox="0 0 512 512.00027" style="enable-background:new 0 0 512 512" xml:space="preserve" class=""><g transform="matrix(1,0,0,1,40,0)"><path xmlns="http://www.w3.org/2000/svg" d="m283.476562 174.886719c-18.480468 4.84375-35.855468 13.433593-50.429687 27.507812-16.078125-34.441406-49.445313-59.207031-88.949219-63.21875 4.675782-24.480469 18.644532-63.835937 60.128906-90.109375 0 0 40.613282-21.84375 48.425782-39.011718 3.339844 21.101562 42.59375 97.957031 30.824218 164.832031-18.480468 4.84375 11.769532-66.875 0 0zm0 0" fill="#41c143" data-original="#cbe558" style="" class=""/><path xmlns="http://www.w3.org/2000/svg" d="m445.996094 186.941406c-16.117188 9.820313-32.917969 52.742188-32.917969 52.742188-9.597656 20.140625-22.566406 34.96875-36.085937 45.863281-19.9375-28.886719-53.300782-47.828125-91.089844-47.828125-15.085938 0-29.453125 3.015625-42.550782 8.476562-.019531-1.019531-.066406-2.035156-.113281-3.050781-.765625-14.5-4.332031-28.261719-10.191406-40.75 14.574219-14.074219 31.945313-22.664062 50.429687-27.507812 64.132813-16.828125 141.703126 11.320312 162.519532 12.054687zm0 0" fill="#41c143" data-original="#cbe558" style="" class=""/><g xmlns="http://www.w3.org/2000/svg" fill="#579fff"><path d="m230.636719 392.039062c0 16.199219-3.488281 31.574219-9.757813 45.445313-17.351562 38.324219-55.964844 65-100.824218 65-61.0625 0-110.566407-49.453125-110.566407-110.445313 0-30.933593 12.730469-58.886718 33.25-78.9375 19.933594-19.488281 47.214844-31.492187 77.316407-31.492187 24.316406 0 46.792968 7.835937 65.035156 21.109375 9.667968 7.027344 18.128906 15.570312 25.050781 25.28125 12.910156 18.058594 20.496094 40.164062 20.496094 64.039062zm0 0" fill="#4d76ef" data-original="#579fff" style="" class=""/><path d="m396.46875 348.152344c0 88.320312-103.675781 141.667968-175.589844 89.332031 16.019532-35.449219 11.882813-77.84375-10.738281-109.484375 2.355469-2.296875 4.722656-4.683594 6.78125-7.253906.503906-.582032.984375-1.164063 1.476563-1.757813.011718-.011719.03125-.035156.046874-.058593.398438-.46875.785157-.960938 1.152344-1.4375.242188-.289063.46875-.574219.6875-.871094 4.605469-5.78125 8.53125-12.207032 11.78125-18.835938.089844-.171875.183594-.355468.261719-.546875 1.03125-2.058593 2.011719-4.179687 2.835937-6.332031.320313-.761719.625-1.53125.917969-2.308594.203125-.5.386719-1.003906.570313-1.515625 4.3125-10.53125 6.25-22.542969 6.65625-33.871093v-.136719c.125-2.28125.101562-4.601563.046875-6.878907 71.679687-29.890624 153.113281 24.480469 153.113281 101.957032zm0 0" fill="#4d76ef" data-original="#579fff" style="" class=""/><path d="m243.386719 249.0625c0 1.335938-.027344 2.671875-.078125 4.007812v.136719c-.40625 11.332031-2.34375 23.347657-6.65625 33.871094-.183594.515625-.367188 1.019531-.574219 1.519531-.289063.777344-.59375 1.542969-.914063 2.308594-.824218 2.152344-1.808593 4.273438-2.835937 6.328125-.082031.195313-.171875.378906-.265625.550781-3.25 6.625-7.171875 13.050782-11.777344 18.835938-.21875.296875-.449218.582031-.6875.867187-.378906.480469-.765625.972657-1.15625 1.441407-.011718.023437-.03125.042968-.046875.054687-.488281.59375-.96875 1.179687-1.472656 1.761719-2.058594 2.570312-4.425781 4.957031-6.785156 7.253906-38.800781-54.449219-119.613281-61.613281-167.398438-14.898438-32.296875-45.171874-25.050781-109.144531 16.140625-146.164062 40.304688-36.222656 103-37.441406 144.667969-2.757812 25.046875 20.851562 39.839844 52.292968 39.839844 84.882812zm0 0" fill="#4d76ef" data-original="#579fff" style="" class=""/></g><path xmlns="http://www.w3.org/2000/svg" d="m455.675781 184.40625c-2.640625-10.085938-23.421875-9.769531-31.53125-11.542969-12.4375-2.722656-24.859375-5.488281-37.40625-7.6875-30.082031-5.277343-61.265625-8.058593-91.578125-2.988281 2.242188-28.609375-2.851562-57.390625-10.464844-84.882812-6.277343-22.675782-18.507812-45.652344-22.152343-68.8125-.109375-.640626-.355469-2.203126-.820313-2.671876-.925781-1.960937-2.925781-4.078124-5.085937-4.941406-1.117188-.515625-3.621094-1.117187-4.957031-.7812498-1.007813.0859378-2.324219.3749998-3.234376.8789058-.441406.199219-.871093.441407-1.28125.710938-1.136718.738281-2.242187 1.828125-2.964843 3.015625-.277344.4375-.519531.894531-.730469 1.371094-5.496094 11.597656-20.832031 20.125-31.199219 26.675781-12.886719 8.132812-25.464843 15.308594-36.519531 26.085938-19.566406 19.074218-33.058594 43.707031-39.65625 70.152343-93.472656-2.519531-155.265625 102.761719-106.101562 182.96875-47.234376 52.796875-37.292969 137.128907 20.078124 178.117188 57.101563 40.796875 139.644532 22.726562 174.628907-38.132813 47.589843 28.054688 109.792969 17.847656 148.027343-21.378906 36.984376-37.945312 44.265626-97.148438 17.035157-142.785156 17.582031-16.023438 27.90625-35.125 37.75-56.316406 4.339843-9.34375 9.117187-18.796876 15.265625-27.105469 4.371094-5.910157 15.109375-11.519531 12.898437-19.949219-1.121093-4.28125 1.121094 4.273438 0 0-2.640625-10.085938 1.121094 4.273438 0 0zm-246.375-126.707031c8.785157-4.757813 17.296875-10.128907 25.429688-15.925781l-11.574219 48.101562c-3 12.488281 16.449219 17.261719 19.472656 4.683594l11.421875-47.519532c10.953125 31.335938 25.792969 77.898438 20.484375 120.003907-5.273437 1.644531-10.476562 3.597656-15.496094 5.90625-.089843.027343-.171874.066406-.261718.117187-.53125.230469-1.058594.480469-1.582032.742188-6.867187 3.074218-15.890624 7.539062-21.324218 12.972656-4.738282-7.863281-10.386719-15.417969-16.890625-21.921875-6.675781-7.378906-15.554688-14.445313-24.355469-19.15625-.550781-.320313-1.101562-.640625-1.652344-.960937h-.011718c-11.335938-6.578126-23.851563-11.296876-36.703126-13.851563 6.347657-23.648437 20.746094-52.617187 53.042969-73.191406 1.921875-1.042969-32.296875 20.574219 0 0zm-143.726562 116.679687c38.492187-34.585937 101.089843-33.550781 137.828125 3.191406.132812.121094.25.242188.363281.359376.8125.8125 1.609375 1.640624 2.390625 2.484374 3.796875 3.914063 7.347656 8.308594 10.292969 12.902344 2.910156 4.164063 5.347656 8.734375 7.527343 13.308594 0 .011719.011719.011719.011719.019531 5.457031 11.640625 8.570313 24.101563 9.25 36.941407l.011719.121093c.066406.90625.097656 1.8125.097656 2.722657v.289062c.117188 1.632812.035156 3.316406-.007812 4.953125v.082031c0 .121094-.011719.230469-.011719.347656-.007813.171876-.007813.351563-.019531.523438v.058594c-.007813.109375-.007813.21875-.007813.328125-.410156 10.820312-2.167969 22.105469-6.597656 32.070312-.304687.742188-.601563 1.492188-.882813 2.242188-.800781 1.992187-1.796874 3.886719-2.644531 5.855469-.039062.070312-.070312.128906-.097656.199218-2.996094 6.117188-6.601563 11.992188-10.863281 17.316406-.089844.128907-.191406.238282-.28125.359376-.105469.113281-.203125.234374-.289063.359374-.289062.347657-.570312.71875-.851562 1.058594l-.050781.050782c-.019532.03125-.039063.050781-.046876.070312-.011718 0-.011718.011719-.011718.011719-41.605469-47.070313-116.46875-53.734375-165.753906-14.753907 0-.011718-.007813-.011718-.007813-.019531-22.117187-40.011719-14-92.316406 20.652344-123.453125 17.710937-15.914062-34.652344 31.136719 0 0zm154.878906 223.484375c-.375 8.25-1.972656 16.605469-4.503906 24.449219-.429688 1.710938-1.144531 3.355469-1.703125 5.023438l-.007813.011718c-.160156.460938-.332031.910156-.523437 1.359375-.167969.453125-.347656.890625-.539063 1.34375-.210937.546875-.441406 1.101563-.691406 1.640625-.230469.558594-.472656 1.109375-.722656 1.660156l-.007813.011719c-.023437.039063-.03125.066407-.050781.109375-28.902344 63.59375-115.578125 78.371094-163.992187 28.226563-53.058594-54.949219-25.269532-150.273438 49.597656-167.507813 39.113281-9.003906 81.515625 6.671875 104.671875 39.613282.011719.023437.03125.042968.042969.0625l.019531.019531c.007812.019531.019531.039062.039062.050781 13.140625 18.539062 19.667969 41.234375 18.371094 63.925781-.019531.4375.109375-1.933593 0 0zm150.265625 3.472657c-29.230469 44.640624-91.542969 60.632812-137.492188 32.386718 2.246094-6.109375 4.382813-12.789062 5.308594-19.257812.621094-2.964844 1.011719-5.988282 1.351563-8.996094.019531-.089844.03125-.179688.03125-.269531.40625-3.535157.238281-7.15625.679687-10.667969 1.152344-22.554688-5.886718-46.257812-17.679687-65.367188.578125-.664062 1.140625-1.332031 1.699219-2.023437.472656-.539063.921874-1.082031 1.375-1.632813l.117187-.140624c.03125-.039063.050781-.070313.082031-.097657.398438-.480469.800782-.980469 1.191406-1.480469.007813-.023437.027344-.03125.039063-.050781 8.082031-9.519531 14.445313-21.328125 18.582031-33.089843 4.292969-10.558594 6.816406-23.378907 7.308594-37.082032.011719-.101562.011719-.199218.011719-.300781v-.148437h.007812c86.277344-29.195313 168.148438 70.566406 117.386719 148.21875-9.730469 14.863281 10.292969-15.746094 0 0zm43.890625-188.953126c-5.828125 11.207032-9.910156 21.265626-10.710937 23.296876-6.4375 13.414062-14.96875 25.234374-25.441407 35.273437-30.363281-36.285156-80.699219-51.726563-126.1875-38.492187-1.289062-9.429688-3.691406-18.585938-7.1875-27.414063v-.011719c2.019531-1.710937 4.167969-3.347656 6.359375-4.832031.320313-.242187.640625-.460937.96875-.671875.804688-.558594 1.625-1.09375 2.453125-1.613281.179688-.128907.351563-.238281.53125-.339844 2.144531-1.429687 4.472657-2.757813 6.789063-3.890625.90625-.480469 1.820312-.945312 2.742187-1.390625.152344-.082031.300781-.152344.449219-.210937 1.910156-.953126 3.898438-1.828126 5.878906-2.613282.730469-.363281 1.636719-.664062 2.382813-.929687 3.023437-1.242188 6.1875-2.222657 9.320312-3.132813 48.007813-12 95.480469-1.839844 142.796875 8.296875-3.625 5.113281-7.332031 11.328125-11.144531 18.675781-5.828125 11.207032 3.8125-7.347656 0 0zm0 0" fill="#ffffff" data-original="#000000" style="" class=""/><path xmlns="http://www.w3.org/2000/svg" d="m225.363281 141.316406c-5.527343 0-10.015625-4.480468-10.015625-10.007812s4.476563-10.007813 10.003906-10.007813h.011719c5.53125 0 10.011719 4.480469 10.011719 10.007813s-4.480469 10.007812-10.011719 10.007812zm0 0" fill="#ffffff" data-original="#000000" style="" class=""/></g></svg>
