<?xml version="1.0" encoding="iso-8859-1"?>
<!-- Generator: Adobe Illustrator 19.0.0, SVG Export Plug-In . SVG Version: 6.00 Build 0)  -->
<svg version="1.1" id="Capa_1" xmlns="http://www.w3.org/2000/svg" xmlns:xlink="http://www.w3.org/1999/xlink" x="0px" y="0px"
	 viewBox="0 0 511.999 511.999" style="enable-background:new 0 0 511.999 511.999;" xml:space="preserve">
<g>
	<g>
		<path d="M309.691,247.214c-3.946-3.855-10.297-3.761-14.159,0.178c-0.008,0.008-0.071,0.073-0.079,0.081
			c-3.85,3.951-3.745,10.246,0.2,14.102c1.938,1.895,4.456,2.835,6.975,2.835c2.608,0,5.218-1.009,7.183-3.013
			c0.008-0.008,0.071-0.073,0.079-0.081C313.741,257.365,313.636,251.071,309.691,247.214z"/>
	</g>
</g>
<g>
	<g>
		<path d="M227.583,410.335l-0.196-0.138c-4.53-3.16-10.764-2.052-13.925,2.477c-3.161,4.529-2.052,10.764,2.477,13.925l0.14,0.098
			c0.001,0.001,0.051,0.036,0.052,0.037c1.744,1.225,3.74,1.813,5.716,1.813c3.145,0,6.239-1.488,8.189-4.262
			C233.214,419.767,232.102,413.512,227.583,410.335z"/>
	</g>
</g>
<g>
	<g>
		<path d="M505.984,156.716l-25.755-49.955c-1.164-2.257-3.143-3.987-5.535-4.838l-66.995-23.844
			c-0.932-0.332-1.881-0.512-2.821-0.562l-9.694-12.398c-15.293-19.561-38.267-31.802-63.032-33.582l-35.097-2.523
			c-2.935-0.213-5.758,0.888-7.781,2.91c-0.003-0.002-0.005-0.004-0.007-0.007l-72.925,72.929
			c-36.163,36.165-47.013,90.118-27.645,137.452l21.415,52.336l-95.509,95.514l4.89-31.417c5.256-33.772-14.513-65.97-47.006-76.562
			l-49.961-16.285c-7.651-2.494-15.638,0.424-19.881,7.258c-4.243,6.834-3.314,15.29,2.313,21.04l23.35,23.858
			c16.611,16.975,30.184,36.467,40.34,57.935l19.31,40.818l-49.143,49.145c-3.905,3.905-3.905,10.238,0,14.143
			c1.953,1.953,4.512,2.929,7.071,2.929c2.559,0,5.119-0.977,7.071-2.929l90.947-90.951l40.815,19.311
			c4.995,2.361,10.956,0.23,13.317-4.763c2.362-4.992,0.229-10.955-4.763-13.317l-17.769-8.406l29.537-4.598
			c24.019-3.735,46.932,10.326,54.466,33.444l12.679,38.901l-15.543-15.213c-3.947-3.864-10.279-3.796-14.142,0.152
			c-3.863,3.947-3.795,10.279,0.152,14.142l23.858,23.351c3.345,3.274,7.605,4.958,11.931,4.958c3.108,0,6.249-0.87,9.107-2.644
			c6.834-4.243,9.752-12.233,7.259-19.882l-16.284-49.963c-10.591-32.496-42.785-52.266-76.559-47.009l-31.415,4.89l51.675-51.677
			l59.205,24.228c15.586,6.378,31.887,9.48,48.037,9.48c32.896,0,65.155-12.87,89.411-37.126l72.925-72.929
			c3.213-3.213,3.776-8.064,1.703-11.86C511.801,206.475,517.616,179.277,505.984,156.716z M99.729,355.655l-4.597,29.537
			l-8.405-17.768c-11.11-23.483-25.955-44.804-44.125-63.371l-15.214-15.546l38.899,12.68
			C89.403,308.722,103.468,331.629,99.729,355.655z M405.597,131.505c6.331-0.823,12.349,1.768,16.105,6.925
			c3.757,5.158,4.375,11.685,1.652,17.456c-2.436,5.165-7.259,8.772-12.841,9.643l-17.755,2.654
			c-1.06,0.158-2.054,0.482-2.965,0.934c-4.003-0.184-8.021-0.192-12.045-0.013l-15.325-31.997L405.597,131.505z M379.821,88.555
			c7.852,0.972,14.688,5.758,18.286,12.805l5.249,10.279c-0.111,0.013-0.222,0.018-0.333,0.032l-44.614,5.789
			c-1.6,0.208-3.057,0.791-4.308,1.638c-2.186-7.073-0.982-14.636,3.464-20.815C362.726,91.105,371.047,87.471,379.821,88.555z
			 M301.909,49.415l28.807,2.071c15.124,1.087,29.37,7.239,40.519,17.226c-9.953,1.234-19.078,5.843-26.068,13.255
			c-0.088,0.082-0.182,0.156-0.268,0.242l-42.673,42.675C288.992,101.503,288.784,73.121,301.909,49.415z M215.582,255.192
			l-8.375-20.468c-16.309-39.856-7.171-85.285,23.277-115.735l42.212-42.214c-2.309,21.916,2.908,44.337,15.536,63.553
			c4.415,6.718,5.555,14.968,3.129,22.631c-2.426,7.664-8.104,13.754-15.581,16.709
			C243.202,192.541,220.666,221.336,215.582,255.192z M404.732,293.247c-30.449,30.451-75.875,39.587-115.728,23.278l-41.386-16.937
			l24.128-11.251c3.172-1.479,6.325-3.107,9.371-4.839c4.801-2.729,6.48-8.834,3.75-13.637c-2.728-4.8-8.834-6.479-13.637-3.75
			c-2.58,1.467-5.25,2.846-7.937,4.098l-28.893,13.472l0.086-14.345c0.189-31.572,19.283-59.467,48.644-71.069
			c13.099-5.176,23.049-15.846,27.299-29.274c2.598-8.208,2.849-16.797,0.895-24.924l22.705-22.706
			c0.729,3.307,1.827,6.579,3.349,9.756l19.456,40.621c-16.471,3.679-29.812,15.807-34.968,31.942
			c-2.297,7.188-5.343,14.164-9.053,20.73c-2.717,4.809-1.021,10.91,3.787,13.626c1.555,0.878,3.244,1.296,4.91,1.296
			c3.488,0,6.877-1.829,8.715-5.083c4.381-7.754,7.979-15.991,10.693-24.48c3.061-9.58,11.092-16.737,20.959-18.68
			c35.425-6.973,72.435,3.464,98.996,27.923l9.416,8.67L404.732,293.247z M479.091,208.603l-4.669-4.299
			c-12.745-11.737-27.535-20.725-43.41-26.7c4.37-3.491,7.969-7.963,10.433-13.183c5.891-12.488,4.555-26.605-3.574-37.766
			c-2.521-3.461-5.514-6.384-8.85-8.721c-0.026-0.053-0.045-0.108-0.072-0.161l-6.803-13.324l42.12,14.991l23.944,46.441
			C495.82,180.65,491.625,198.557,479.091,208.603z"/>
	</g>
</g>
<g>
</g>
<g>
</g>
<g>
</g>
<g>
</g>
<g>
</g>
<g>
</g>
<g>
</g>
<g>
</g>
<g>
</g>
<g>
</g>
<g>
</g>
<g>
</g>
<g>
</g>
<g>
</g>
<g>
</g>
</svg>
